<mxfile host="app.diagrams.net" modified="2021-08-10T04:47:58.386Z" agent="5.0 (Macintosh; Intel Mac OS X 10_15_7) AppleWebKit/537.36 (KHTML, like Gecko) Chrome/92.0.4515.131 Safari/537.36" etag="GLyxa1HS4YsaBorE8DHz" version="14.9.3" type="github">
  <diagram name="Page-1" id="d9b1e647-80fa-b4a2-5024-87a742678bcc">
    <mxGraphModel dx="1186" dy="614" grid="0" gridSize="10" guides="1" tooltips="1" connect="1" arrows="1" fold="1" page="1" pageScale="1" pageWidth="1100" pageHeight="850" background="none" math="0" shadow="0">
      <root>
        <mxCell id="0" />
        <mxCell id="1" parent="0" />
        <mxCell id="57fe6abec08f04cb-1" value="Week 1&lt;br&gt;&lt;font style=&quot;font-size: 12px&quot;&gt;May 27-June 3&lt;/font&gt;" style="shape=step;whiteSpace=wrap;html=1;fontSize=28;fillColor=#0080FF;fontColor=#FFFFFF;strokeColor=none;" parent="1" vertex="1">
          <mxGeometry x="90" y="180" width="170" height="80" as="geometry" />
        </mxCell>
        <mxCell id="57fe6abec08f04cb-2" value="Week 2&lt;br&gt;&lt;font style=&quot;font-size: 12px&quot;&gt;J&lt;font&gt;u&lt;/font&gt;&lt;/font&gt;&lt;font style=&quot;font-size: 12px&quot;&gt;ne 4- Jun 11&lt;/font&gt;" style="shape=step;whiteSpace=wrap;html=1;fontSize=28;fillColor=#0075E8;fontColor=#FFFFFF;strokeColor=none;" parent="1" vertex="1">
          <mxGeometry x="300" y="180" width="170" height="80" as="geometry" />
        </mxCell>
        <mxCell id="57fe6abec08f04cb-3" value="Week 3&lt;br&gt;&lt;font style=&quot;font-size: 12px&quot;&gt;June 14-18&lt;/font&gt;" style="shape=step;whiteSpace=wrap;html=1;fontSize=28;fillColor=#0067CC;fontColor=#FFFFFF;strokeColor=none;" parent="1" vertex="1">
          <mxGeometry x="520" y="180" width="170" height="80" as="geometry" />
        </mxCell>
        <mxCell id="57fe6abec08f04cb-4" value="Week 4&lt;br&gt;&lt;font style=&quot;font-size: 12px&quot;&gt;June 18-25&lt;/font&gt;" style="shape=step;whiteSpace=wrap;html=1;fontSize=28;fillColor=#0062C4;fontColor=#FFFFFF;strokeColor=none;" parent="1" vertex="1">
          <mxGeometry x="740" y="180" width="200" height="80" as="geometry" />
        </mxCell>
        <mxCell id="57fe6abec08f04cb-7" value="&lt;font style=&quot;font-size: 36px&quot;&gt;Anand ramp up progress&lt;/font&gt;" style="text;html=1;strokeColor=none;fillColor=#61BAFF;align=center;verticalAlign=middle;whiteSpace=wrap;fontSize=54;fontStyle=1;fontColor=#004D99;" parent="1" vertex="1">
          <mxGeometry x="80" y="130" width="860" height="50" as="geometry" />
        </mxCell>
        <mxCell id="WfNH4-pf-VjyFcLgyXZl-1" value="&lt;p class=&quot;p1&quot; style=&quot;font-stretch: normal ; line-height: normal ; font-family: &amp;#34;helvetica neue&amp;#34; ; background-color: rgb(255 , 255 , 255) ; margin: 0px&quot;&gt;&lt;b&gt;Key coverage items:&lt;/b&gt;&lt;/p&gt;&lt;p class=&quot;p1&quot; style=&quot;font-stretch: normal ; line-height: normal ; font-family: &amp;#34;helvetica neue&amp;#34; ; background-color: rgb(255 , 255 , 255) ; margin: 0px&quot;&gt;&lt;/p&gt;&lt;ul style=&quot;font-family: &amp;#34;calibri&amp;#34; , &amp;#34;arial&amp;#34; , &amp;#34;helvetica&amp;#34; , sans-serif ; font-size: 16px ; background-color: rgb(255 , 255 , 255)&quot;&gt;&lt;li&gt;&lt;span style=&quot;margin: 0px ; padding: 0px ; border: 0px ; font-style: inherit ; font-variant: inherit ; font-weight: inherit ; font-stretch: inherit ; font-size: 9pt ; line-height: inherit ; font-family: &amp;#34;helvetica neue&amp;#34; ; vertical-align: baseline ; background-color: rgba(0 , 0 , 0 , 0)&quot;&gt;HR Onboarding : &lt;/span&gt;&lt;span style=&quot;margin: 0px ; padding: 0px ; border: 0px ; font-style: inherit ; font-variant: inherit ; font-stretch: inherit ; font-size: 9pt ; line-height: inherit ; font-family: &amp;#34;helvetica neue&amp;#34; ; vertical-align: baseline ; background-color: rgba(0 , 0 , 0 , 0)&quot;&gt;&lt;b&gt;Done&lt;/b&gt;&lt;/span&gt;&lt;br&gt;&lt;span style=&quot;margin: 0px ; padding: 0px ; border: 0px ; font-style: inherit ; font-variant: inherit ; font-weight: inherit ; font-stretch: inherit ; font-size: 9pt ; line-height: inherit ; font-family: &amp;#34;helvetica neue&amp;#34; ; vertical-align: baseline ; background-color: rgba(0 , 0 , 0 , 0)&quot;&gt;(PF/Tax/Insurance )&amp;nbsp;&lt;/span&gt;&lt;br&gt;&lt;/li&gt;&lt;li&gt;&lt;p class=&quot;p1&quot; style=&quot;margin: 0px ; font-stretch: normal ; font-size: 12px ; line-height: normal ; font-family: &amp;#34;helvetica neue&amp;#34;&quot;&gt;Team meeting : 1 Round&lt;br&gt;&lt;/p&gt;&lt;/li&gt;&lt;li&gt;&lt;p class=&quot;p1&quot; style=&quot;margin: 0px ; font-stretch: normal ; font-size: 12px ; line-height: normal ; font-family: &amp;#34;helvetica neue&amp;#34;&quot;&gt;Team mentor: Sync up with Sandeep&lt;br&gt;&lt;/p&gt;&lt;/li&gt;&lt;li&gt;&lt;p class=&quot;p1&quot; style=&quot;margin: 0px ; font-stretch: normal ; font-size: 12px ; line-height: normal ; font-family: &amp;#34;helvetica neue&amp;#34;&quot;&gt;Ramp up Stories in Jira : Assigned by Sandeep&amp;nbsp;&lt;br&gt;&lt;/p&gt;&lt;/li&gt;&lt;li&gt;&lt;p class=&quot;p1&quot; style=&quot;margin: 0px ; font-stretch: normal ; font-size: 12px ; line-height: normal ; font-family: &amp;#34;helvetica neue&amp;#34;&quot;&gt;Lab/Shared assets :&amp;nbsp;&lt;/p&gt;&lt;/li&gt;&lt;li&gt;&lt;p class=&quot;p1&quot; style=&quot;margin: 0px ; font-stretch: normal ; font-size: 12px ; line-height: normal ; font-family: &amp;#34;helvetica neue&amp;#34;&quot;&gt;Jenkins : &lt;b&gt;Got Access&lt;/b&gt;&amp;nbsp; ( QA/Engg/Management)&lt;/p&gt;&lt;/li&gt;&lt;li&gt;&lt;p class=&quot;p1&quot; style=&quot;margin: 0px ; font-stretch: normal ; font-size: 12px ; line-height: normal ; font-family: &amp;#34;helvetica neue&amp;#34;&quot;&gt;VCenter : &lt;b&gt;Got Access&lt;/b&gt;&amp;nbsp; (QA/DEV/Lab)&lt;/p&gt;&lt;/li&gt;&lt;li&gt;&lt;p class=&quot;p1&quot; style=&quot;margin: 0px ; font-stretch: normal ; font-size: 12px ; line-height: normal ; font-family: &amp;#34;helvetica neue&amp;#34;&quot;&gt;AWS console+ Bucket : &lt;b&gt;Got Access&lt;/b&gt;&lt;/p&gt;&lt;/li&gt;&lt;/ul&gt;&lt;p style=&quot;font-family: &amp;#34;calibri&amp;#34; , &amp;#34;arial&amp;#34; , &amp;#34;helvetica&amp;#34; , sans-serif ; font-size: 16px ; background-color: rgb(255 , 255 , 255)&quot;&gt;&lt;/p&gt;&lt;p class=&quot;p2&quot; style=&quot;font-stretch: normal ; line-height: normal ; font-family: &amp;#34;helvetica neue&amp;#34; ; background-color: rgb(255 , 255 , 255) ; margin: 0px ; min-height: 14px&quot;&gt;&lt;b&gt;Key exit items :&lt;/b&gt;&lt;br&gt;&lt;/p&gt;&lt;p class=&quot;p1&quot; style=&quot;font-stretch: normal ; line-height: normal ; font-family: &amp;#34;helvetica neue&amp;#34; ; background-color: rgb(255 , 255 , 255) ; margin: 0px&quot;&gt;&lt;/p&gt;&lt;ul style=&quot;font-family: &amp;#34;calibri&amp;#34; , &amp;#34;arial&amp;#34; , &amp;#34;helvetica&amp;#34; , sans-serif ; font-size: 16px ; background-color: rgb(255 , 255 , 255)&quot;&gt;&lt;li&gt;&lt;span style=&quot;margin: 0px ; padding: 0px ; border: 0px ; font-style: inherit ; font-variant: inherit ; font-weight: inherit ; font-stretch: inherit ; font-size: 9pt ; line-height: inherit ; font-family: &amp;#34;helvetica neue&amp;#34; ; vertical-align: baseline ; background-color: rgba(0 , 0 , 0 , 0)&quot;&gt;Product overview + customer use cases&lt;/span&gt;&lt;/li&gt;&lt;li&gt;&lt;p class=&quot;p1&quot; style=&quot;margin: 0px ; font-stretch: normal ; font-size: 12px ; line-height: normal ; font-family: &amp;#34;helvetica neue&amp;#34;&quot;&gt;Familiarized Lab and Automated/Manual Cluster creation.&lt;/p&gt;&lt;/li&gt;&lt;li&gt;&lt;p class=&quot;p1&quot; style=&quot;margin: 0px ; font-stretch: normal ; font-size: 12px ; line-height: normal ; font-family: &amp;#34;helvetica neue&amp;#34;&quot;&gt;Using Jenkins for relevant tasks.&lt;/p&gt;&lt;/li&gt;&lt;/ul&gt;" style="text;spacingTop=-5;fillColor=#B9E0A5;whiteSpace=wrap;html=1;align=left;fontSize=12;fontFamily=Helvetica;fillColor=none;strokeColor=#33FF33;" parent="1" vertex="1">
          <mxGeometry x="80" y="270" width="210" height="480" as="geometry" />
        </mxCell>
        <mxCell id="WfNH4-pf-VjyFcLgyXZl-3" value="&lt;p class=&quot;p1&quot; style=&quot;font-family: &amp;#34;helvetica neue&amp;#34; ; background-color: rgb(255 , 255 , 255) ; margin: 0px&quot;&gt;&lt;b&gt;Key coverage items:&lt;/b&gt;&lt;/p&gt;&lt;p class=&quot;p1&quot; style=&quot;font-family: &amp;#34;helvetica neue&amp;#34; ; background-color: rgb(255 , 255 , 255) ; margin: 0px&quot;&gt;&lt;/p&gt;&lt;ul style=&quot;background-color: rgb(255 , 255 , 255)&quot;&gt;&lt;li&gt;&lt;font face=&quot;helvetica neue&quot;&gt;Progress on Jira pending ramp up items:&lt;span style=&quot;margin: 0px ; padding: 0px ; border: 0px ; font: inherit ; vertical-align: baseline ; color: inherit&quot;&gt;&amp;nbsp;&lt;/span&gt;&lt;b&gt;On track to closure&lt;/b&gt;&lt;/font&gt;&lt;/li&gt;&lt;li&gt;&lt;span style=&quot;margin: 0px ; padding: 0px ; border: 0px ; font-style: inherit ; font-variant: inherit ; font-weight: inherit ; font-stretch: inherit ; font-size: inherit ; line-height: inherit ; font-family: &amp;#34;helvetica neue&amp;#34; ; vertical-align: baseline ; color: inherit&quot;&gt;Fpolicy+dual share archive&lt;span style=&quot;margin: 0px ; padding: 0px ; border: 0px ; font: inherit ; vertical-align: baseline ; color: inherit&quot;&gt;&amp;nbsp;&lt;/span&gt;&lt;/span&gt;&lt;b style=&quot;font-family: &amp;#34;helvetica neue&amp;#34;&quot;&gt;: Pending (&lt;/b&gt;KMPQA-335)&lt;/li&gt;&lt;li style=&quot;font-family: &amp;#34;calibri&amp;#34; , &amp;#34;arial&amp;#34; , &amp;#34;helvetica&amp;#34; , sans-serif ; font-size: 16px&quot;&gt;&lt;p class=&quot;p1&quot; style=&quot;margin: 0px ; font-size: 12px ; font-family: &amp;#34;helvetica neue&amp;#34;&quot;&gt;Walkthrough Git Structure:&lt;span style=&quot;margin: 0px ; padding: 0px ; border: 0px ; font: inherit ; vertical-align: baseline ; color: inherit&quot;&gt;&amp;nbsp;&lt;/span&gt;&lt;b&gt;Ongoing&lt;/b&gt;&lt;/p&gt;&lt;/li&gt;&lt;li style=&quot;font-family: &amp;#34;calibri&amp;#34; , &amp;#34;arial&amp;#34; , &amp;#34;helvetica&amp;#34; , sans-serif ; font-size: 16px&quot;&gt;&lt;p class=&quot;p1&quot; style=&quot;margin: 0px ; font-size: 12px ; font-family: &amp;#34;helvetica neue&amp;#34;&quot;&gt;Walk through Advanced use cases :&lt;span style=&quot;margin: 0px ; padding: 0px ; border: 0px ; font: inherit ; vertical-align: baseline ; color: inherit&quot;&gt;&amp;nbsp;&lt;/span&gt;Sync Crawl+ST Sync+Access modes&lt;b&gt;&amp;nbsp;Done&lt;/b&gt;&lt;/p&gt;&lt;/li&gt;&lt;li style=&quot;font-family: &amp;#34;calibri&amp;#34; , &amp;#34;arial&amp;#34; , &amp;#34;helvetica&amp;#34; , sans-serif ; font-size: 16px&quot;&gt;&lt;p class=&quot;p1&quot; style=&quot;margin: 0px ; font-size: 12px ; font-family: &amp;#34;helvetica neue&amp;#34;&quot;&gt;KCFS/Logging/Debugging &lt;b&gt;Done&lt;/b&gt;&lt;/p&gt;&lt;/li&gt;&lt;li style=&quot;font-family: &amp;#34;calibri&amp;#34; , &amp;#34;arial&amp;#34; , &amp;#34;helvetica&amp;#34; , sans-serif ; font-size: 16px&quot;&gt;&lt;p class=&quot;p1&quot; style=&quot;margin: 0px ; font-size: 12px ; font-family: &amp;#34;helvetica neue&amp;#34;&quot;&gt;Walkthrough Last GA 3.4+ release document : Ongoing&lt;/p&gt;&lt;/li&gt;&lt;li style=&quot;font-family: &amp;#34;calibri&amp;#34; , &amp;#34;arial&amp;#34; , &amp;#34;helvetica&amp;#34; , sans-serif ; font-size: 16px&quot;&gt;&lt;p class=&quot;p1&quot; style=&quot;margin: 0px ; font-size: 12px ; font-family: &amp;#34;helvetica neue&amp;#34;&quot;&gt;Overview on Perf coverage w/ Videsh-&lt;span style=&quot;margin: 0px ; padding: 0px ; border: 0px ; font: inherit ; vertical-align: baseline ; color: inherit&quot;&gt;&amp;nbsp;&lt;/span&gt;&lt;b&gt;DONE&lt;/b&gt;&lt;b style=&quot;font-style: inherit&quot;&gt;&lt;br&gt;&lt;/b&gt;&lt;/p&gt;&lt;/li&gt;&lt;/ul&gt;&lt;p class=&quot;p1&quot; style=&quot;background-color: rgb(255 , 255 , 255) ; margin: 0px ; font-family: &amp;#34;helvetica neue&amp;#34;&quot;&gt;&lt;b style=&quot;font-style: inherit&quot;&gt;Key exit items :&lt;/b&gt;&lt;/p&gt;&lt;p class=&quot;p1&quot; style=&quot;font-family: &amp;#34;helvetica neue&amp;#34; ; background-color: rgb(255 , 255 , 255) ; margin: 0px&quot;&gt;&lt;/p&gt;&lt;ul style=&quot;font-size: 16px ; font-family: &amp;#34;calibri&amp;#34; , &amp;#34;arial&amp;#34; , &amp;#34;helvetica&amp;#34; , sans-serif ; background-color: rgb(255 , 255 , 255)&quot;&gt;&lt;li&gt;&lt;span style=&quot;margin: 0px ; padding: 0px ; border: 0px ; font-style: inherit ; font-variant: inherit ; font-weight: inherit ; font-stretch: inherit ; font-size: 9pt ; line-height: inherit ; font-family: &amp;#34;helvetica neue&amp;#34; ; vertical-align: baseline ; color: inherit ; background-color: rgba(0 , 0 , 0 , 0)&quot;&gt;Able to explain Block/Component level stack :&amp;nbsp;&lt;b&gt;Yes&lt;/b&gt;&lt;/span&gt;&lt;/li&gt;&lt;li&gt;&lt;p class=&quot;p1&quot; style=&quot;margin: 0px ; font-size: 12px ; font-family: &amp;#34;helvetica neue&amp;#34;&quot;&gt;Able to re-use/identify existing automation stack:&amp;nbsp;&lt;b&gt;Yes&lt;/b&gt;&lt;/p&gt;&lt;/li&gt;&lt;li&gt;&lt;p class=&quot;p1&quot; style=&quot;margin: 0px ; font-size: 12px ; font-family: &amp;#34;helvetica neue&amp;#34;&quot;&gt;Grasp early perf/scale requirements based on past results summary :&amp;nbsp;&lt;b&gt;Yes&lt;/b&gt;&lt;/p&gt;&lt;/li&gt;&lt;li&gt;&lt;p class=&quot;p1&quot; style=&quot;margin: 0px ; font-size: 12px ; font-family: &amp;#34;helvetica neue&amp;#34;&quot;&gt;Perf tools/utilities are understood:&amp;nbsp;&lt;b&gt;Ongoing&lt;/b&gt;&lt;/p&gt;&lt;/li&gt;&lt;/ul&gt;" style="text;spacingTop=-5;fillColor=#33FF33;whiteSpace=wrap;html=1;align=left;fontSize=12;fontFamily=Helvetica;fillColor=none;strokeColor=#33FF33;" parent="1" vertex="1">
          <mxGeometry x="300" y="270" width="210" height="480" as="geometry" />
        </mxCell>
        <mxCell id="WfNH4-pf-VjyFcLgyXZl-4" value="&lt;meta charset=&quot;utf-8&quot;&gt;&lt;p class=&quot;p1&quot; style=&quot;background-color: rgb(255 , 255 , 255) ; margin: 0px&quot;&gt;&lt;b&gt;Key coverage items:&lt;/b&gt;&lt;/p&gt;&lt;p class=&quot;p2&quot; style=&quot;background-color: rgb(255 , 255 , 255) ; margin: 0px ; min-height: 14px&quot;&gt;&lt;br&gt;&lt;/p&gt;&lt;p class=&quot;p1&quot; style=&quot;background-color: rgb(255 , 255 , 255) ; margin: 0px&quot;&gt;&lt;/p&gt;&lt;ul style=&quot;font-family: &amp;quot;helvetica&amp;quot; ; background-color: rgb(255 , 255 , 255)&quot;&gt;&lt;li&gt;&lt;font face=&quot;helvetica neue&quot;&gt;Review the perf/scale matrix + Familiarize Perf Lab usage.&lt;/font&gt;&lt;/li&gt;&lt;li&gt;&lt;font face=&quot;helvetica neue&quot;&gt;Pick up v4.0 release Perf regression stories ( will check the schedule with Vidhesh)&lt;br&gt;&lt;/font&gt;&lt;/li&gt;&lt;li&gt;&lt;font face=&quot;helvetica neue&quot;&gt;Engage in open items for upcoming release.&lt;/font&gt;&lt;/li&gt;&lt;li&gt;&lt;font face=&quot;helvetica neue&quot;&gt;Understand the test plan for Perf/scale outlined for new/regression features.&lt;/font&gt;&lt;/li&gt;&lt;li&gt;&lt;font face=&quot;helvetica neue&quot;&gt;Understand the customer issues/Bug fixes&lt;/font&gt;&lt;/li&gt;&lt;/ul&gt;&lt;p class=&quot;p1&quot; style=&quot;background-color: rgb(255 , 255 , 255) ; margin: 0px&quot;&gt;&lt;b&gt;Key exit items :&lt;/b&gt;&lt;/p&gt;&lt;p class=&quot;p1&quot; style=&quot;background-color: rgb(255 , 255 , 255) ; margin: 0px&quot;&gt;&lt;/p&gt;&lt;ul style=&quot;font-family: &amp;quot;calibri&amp;quot; , &amp;quot;arial&amp;quot; , &amp;quot;helvetica&amp;quot; , sans-serif ; font-size: 16px ; background-color: rgb(255 , 255 , 255)&quot;&gt;&lt;li&gt;&lt;span style=&quot;margin: 0px ; padding: 0px ; border: 0px ; font-style: inherit ; font-variant: inherit ; font-weight: inherit ; font-stretch: inherit ; font-size: 9pt ; line-height: inherit ; font-family: &amp;quot;helvetica neue&amp;quot; ; vertical-align: baseline ; color: inherit ; background-color: rgba(0 , 0 , 0 , 0)&quot;&gt;Able to identify code structure.&lt;/span&gt;&lt;/li&gt;&lt;li&gt;&lt;span style=&quot;margin: 0px ; padding: 0px ; border: 0px ; font-style: inherit ; font-variant: inherit ; font-weight: inherit ; font-stretch: inherit ; font-size: 9pt ; line-height: inherit ; font-family: &amp;quot;helvetica neue&amp;quot; ; vertical-align: baseline ; color: inherit ; background-color: rgba(0 , 0 , 0 , 0)&quot;&gt;Able to list component wise perf summary/pain areas.&lt;/span&gt;&lt;/li&gt;&lt;li&gt;&lt;span style=&quot;margin: 0px ; padding: 0px ; border: 0px ; font-style: inherit ; font-variant: inherit ; font-weight: inherit ; font-stretch: inherit ; font-size: 9pt ; line-height: inherit ; font-family: &amp;quot;helvetica neue&amp;quot; ; vertical-align: baseline ; color: inherit ; background-color: rgba(0 , 0 , 0 , 0)&quot;&gt;Able to execute early Jenkins for available perf/scale runs.&lt;/span&gt;&lt;/li&gt;&lt;li&gt;&lt;span style=&quot;margin: 0px ; padding: 0px ; border: 0px ; font-style: inherit ; font-variant: inherit ; font-weight: inherit ; font-stretch: inherit ; font-size: 9pt ; line-height: inherit ; font-family: &amp;quot;helvetica neue&amp;quot; ; vertical-align: baseline ; color: inherit ; background-color: rgba(0 , 0 , 0 , 0)&quot;&gt;Listed reusable Perf/scale results template from repositories.&lt;/span&gt;&lt;/li&gt;&lt;/ul&gt;&lt;div style=&quot;margin: 0px ; padding: 0px ; border: 0px ; font: inherit ; vertical-align: baseline ; color: inherit&quot;&gt;&lt;br style=&quot;color: rgb(0, 0, 0); font-family: &amp;quot;helvetica neue&amp;quot;; font-size: 12px; font-style: normal; font-weight: 400; letter-spacing: normal; text-align: left; text-indent: 0px; text-transform: none; word-spacing: 0px; background-color: rgb(255, 255, 255);&quot;&gt;&lt;/div&gt;" style="text;spacingTop=-5;fillColor=#FFFF33;whiteSpace=wrap;html=1;align=left;fontSize=12;fontFamily=Helvetica;fillColor=none;strokeColor=#FFFF33;" parent="1" vertex="1">
          <mxGeometry x="520" y="270" width="210" height="480" as="geometry" />
        </mxCell>
        <mxCell id="WfNH4-pf-VjyFcLgyXZl-5" value="&lt;p class=&quot;p1&quot; style=&quot;font-stretch: normal ; line-height: normal ; font-family: &amp;#34;helvetica neue&amp;#34; ; background-color: rgb(255 , 255 , 255) ; margin: 0px&quot;&gt;&lt;b&gt;Key coverage items:&lt;/b&gt;&lt;/p&gt;&lt;p class=&quot;p1&quot; style=&quot;font-stretch: normal ; line-height: normal ; font-family: &amp;#34;helvetica neue&amp;#34; ; background-color: rgb(255 , 255 , 255) ; margin: 0px&quot;&gt;&lt;br&gt;&lt;/p&gt;&lt;ul style=&quot;background-color: rgb(255 , 255 , 255)&quot;&gt;&lt;li&gt;Reverse KT/review coverage of week 1-3 with module leads.&lt;/li&gt;&lt;li&gt;Explore Filer/Cloud use cases support matrix and its past baselines.&lt;/li&gt;&lt;li&gt;Collboration with team/Vidhesh on open stories.&lt;/li&gt;&lt;li&gt;Contribution towards open automation stories in perf/scale.&lt;/li&gt;&lt;/ul&gt;&lt;p style=&quot;font-family: &amp;#34;calibri&amp;#34; , &amp;#34;arial&amp;#34; , &amp;#34;helvetica&amp;#34; , sans-serif ; font-size: 16px ; background-color: rgb(255 , 255 , 255)&quot;&gt;&lt;/p&gt;&lt;p class=&quot;p2&quot; style=&quot;font-stretch: normal ; line-height: normal ; font-family: &amp;#34;helvetica neue&amp;#34; ; background-color: rgb(255 , 255 , 255) ; margin: 0px ; min-height: 14px&quot;&gt;&lt;br&gt;&lt;/p&gt;&lt;p class=&quot;p1&quot; style=&quot;font-stretch: normal ; line-height: normal ; font-family: &amp;#34;helvetica neue&amp;#34; ; background-color: rgb(255 , 255 , 255) ; margin: 0px&quot;&gt;&lt;b&gt;Key exit items :&lt;/b&gt;&lt;/p&gt;&lt;p class=&quot;p1&quot; style=&quot;font-stretch: normal ; line-height: normal ; font-family: &amp;#34;helvetica neue&amp;#34; ; background-color: rgb(255 , 255 , 255) ; margin: 0px&quot;&gt;&lt;/p&gt;&lt;ul style=&quot;font-family: &amp;#34;calibri&amp;#34; , &amp;#34;arial&amp;#34; , &amp;#34;helvetica&amp;#34; , sans-serif ; font-size: 16px ; background-color: rgb(255 , 255 , 255)&quot;&gt;&lt;li&gt;&lt;span style=&quot;margin: 0px ; padding: 0px ; border: 0px ; font-style: inherit ; font-variant: inherit ; font-weight: inherit ; font-stretch: inherit ; font-size: 9pt ; line-height: inherit ; font-family: &amp;#34;helvetica neue&amp;#34; ; vertical-align: baseline ; background-color: rgba(0 , 0 , 0 , 0)&quot;&gt;Able to summarize present/past results from published charts.&lt;/span&gt;&lt;/li&gt;&lt;li&gt;&lt;span style=&quot;margin: 0px ; padding: 0px ; border: 0px ; font-style: inherit ; font-variant: inherit ; font-weight: inherit ; font-stretch: inherit ; font-size: 9pt ; line-height: inherit ; font-family: &amp;#34;helvetica neue&amp;#34; ; vertical-align: baseline ; background-color: rgba(0 , 0 , 0 , 0)&quot;&gt;Key configurations/tunables recognised which influence scale observations.&lt;/span&gt;&lt;/li&gt;&lt;li&gt;&lt;span style=&quot;margin: 0px ; padding: 0px ; border: 0px ; font-style: inherit ; font-variant: inherit ; font-weight: inherit ; font-stretch: inherit ; font-size: 9pt ; line-height: inherit ; font-family: &amp;#34;helvetica neue&amp;#34; ; vertical-align: baseline ; background-color: rgba(0 , 0 , 0 , 0)&quot;&gt;Able to compare current vs competitor offerings on perf/scale for similar offerings.&lt;/span&gt;&lt;/li&gt;&lt;/ul&gt;" style="text;spacingTop=-5;fillColor=#ffffff;whiteSpace=wrap;html=1;align=left;fontSize=12;fontFamily=Helvetica;fillColor=none;strokeColor=#FFFF66;" parent="1" vertex="1">
          <mxGeometry x="740" y="270" width="210" height="480" as="geometry" />
        </mxCell>
        <mxCell id="Gu23wZPOQihIqfuBA1uE-1" value="Sizing&amp;nbsp;" style="shape=step;whiteSpace=wrap;html=1;fontSize=28;fillColor=#0080FF;fontColor=#FFFFFF;strokeColor=none;" vertex="1" parent="1">
          <mxGeometry x="753" y="1040" width="200" height="80" as="geometry" />
        </mxCell>
        <mxCell id="Gu23wZPOQihIqfuBA1uE-2" value="Baselining" style="shape=step;whiteSpace=wrap;html=1;fontSize=28;fillColor=#0075E8;fontColor=#FFFFFF;strokeColor=none;" vertex="1" parent="1">
          <mxGeometry x="80" y="1040" width="210" height="80" as="geometry" />
        </mxCell>
        <mxCell id="Gu23wZPOQihIqfuBA1uE-3" value="Profiling" style="shape=step;whiteSpace=wrap;html=1;fontSize=28;fillColor=#0067CC;fontColor=#FFFFFF;strokeColor=none;" vertex="1" parent="1">
          <mxGeometry x="530" y="1040" width="200" height="80" as="geometry" />
        </mxCell>
        <mxCell id="Gu23wZPOQihIqfuBA1uE-4" value="Perf&lt;br&gt;Automations" style="shape=step;whiteSpace=wrap;html=1;fontSize=28;fillColor=#0062C4;fontColor=#FFFFFF;strokeColor=none;" vertex="1" parent="1">
          <mxGeometry x="300" y="1040" width="200" height="80" as="geometry" />
        </mxCell>
        <mxCell id="Gu23wZPOQihIqfuBA1uE-5" value="&lt;font style=&quot;font-size: 36px&quot;&gt;Performance Validations - Komprise&lt;/font&gt;" style="text;html=1;strokeColor=none;fillColor=#61BAFF;align=center;verticalAlign=middle;whiteSpace=wrap;fontSize=54;fontStyle=1;fontColor=#004D99;" vertex="1" parent="1">
          <mxGeometry x="80" y="990" width="860" height="50" as="geometry" />
        </mxCell>
        <mxCell id="Gu23wZPOQihIqfuBA1uE-6" value="&lt;p class=&quot;p1&quot; style=&quot;font-stretch: normal ; line-height: normal ; font-family: &amp;#34;helvetica neue&amp;#34; ; background-color: rgb(255 , 255 , 255) ; margin: 0px&quot;&gt;&lt;b&gt;Key coverage items:&lt;/b&gt;&lt;/p&gt;&lt;p class=&quot;p1&quot; style=&quot;font-stretch: normal ; line-height: normal ; font-family: &amp;#34;helvetica neue&amp;#34; ; background-color: rgb(255 , 255 , 255) ; margin: 0px&quot;&gt;&lt;/p&gt;&lt;ul style=&quot;background-color: rgb(255 , 255 , 255)&quot;&gt;&lt;li&gt;&lt;font face=&quot;helvetica neue&quot;&gt;New Feature baseline.&lt;/font&gt;&lt;/li&gt;&lt;li style=&quot;font-family: &amp;#34;calibri&amp;#34; , &amp;#34;arial&amp;#34; , &amp;#34;helvetica&amp;#34; , sans-serif ; font-size: 16px&quot;&gt;&lt;p class=&quot;p1&quot; style=&quot;margin: 0px ; font-stretch: normal ; font-size: 12px ; line-height: normal ; font-family: &amp;#34;helvetica neue&amp;#34;&quot;&gt;Compare Baseline metrics.&lt;br&gt;&lt;/p&gt;&lt;/li&gt;&lt;li style=&quot;font-family: &amp;#34;calibri&amp;#34; , &amp;#34;arial&amp;#34; , &amp;#34;helvetica&amp;#34; , sans-serif ; font-size: 16px&quot;&gt;&lt;p class=&quot;p1&quot; style=&quot;margin: 0px ; font-stretch: normal ; font-size: 12px ; line-height: normal ; font-family: &amp;#34;helvetica neue&amp;#34;&quot;&gt;Ensure no major customer exp issues.&lt;br&gt;&lt;/p&gt;&lt;/li&gt;&lt;li style=&quot;font-family: &amp;#34;calibri&amp;#34; , &amp;#34;arial&amp;#34; , &amp;#34;helvetica&amp;#34; , sans-serif ; font-size: 16px&quot;&gt;&lt;p class=&quot;p1&quot; style=&quot;margin: 0px ; font-stretch: normal ; font-size: 12px ; line-height: normal ; font-family: &amp;#34;helvetica neue&amp;#34;&quot;&gt;Capture degradations if any with feature additions.&lt;/p&gt;&lt;/li&gt;&lt;li style=&quot;font-family: &amp;#34;calibri&amp;#34; , &amp;#34;arial&amp;#34; , &amp;#34;helvetica&amp;#34; , sans-serif ; font-size: 16px&quot;&gt;&lt;p class=&quot;p1&quot; style=&quot;margin: 0px ; font-stretch: normal ; font-size: 12px ; line-height: normal ; font-family: &amp;#34;helvetica neue&amp;#34;&quot;&gt;Go - No Go decision.&lt;/p&gt;&lt;/li&gt;&lt;/ul&gt;&lt;p style=&quot;font-family: &amp;#34;calibri&amp;#34; , &amp;#34;arial&amp;#34; , &amp;#34;helvetica&amp;#34; , sans-serif ; font-size: 16px ; background-color: rgb(255 , 255 , 255)&quot;&gt;&lt;/p&gt;&lt;p class=&quot;p2&quot; style=&quot;font-stretch: normal ; line-height: normal ; font-family: &amp;#34;helvetica neue&amp;#34; ; background-color: rgb(255 , 255 , 255) ; margin: 0px ; min-height: 14px&quot;&gt;&lt;b&gt;Key exit items :&lt;/b&gt;&lt;br&gt;&lt;/p&gt;&lt;p class=&quot;p1&quot; style=&quot;font-stretch: normal ; line-height: normal ; font-family: &amp;#34;helvetica neue&amp;#34; ; background-color: rgb(255 , 255 , 255) ; margin: 0px&quot;&gt;&lt;/p&gt;&lt;ul style=&quot;background-color: rgb(255 , 255 , 255)&quot;&gt;&lt;li&gt;&lt;font face=&quot;helvetica neue&quot;&gt;New Feature Perf test plan reviewed.&lt;/font&gt;&lt;/li&gt;&lt;li&gt;&lt;font face=&quot;helvetica neue&quot;&gt;System and Process level stats available for reference.&lt;/font&gt;&lt;/li&gt;&lt;li&gt;&lt;font face=&quot;helvetica neue&quot;&gt;Architect/Dev sign off obtained.&lt;/font&gt;&lt;/li&gt;&lt;li&gt;&lt;font face=&quot;helvetica neue&quot;&gt;Test results published and archived for reference.&lt;/font&gt;&lt;/li&gt;&lt;/ul&gt;" style="text;spacingTop=-5;fillColor=#B9E0A5;whiteSpace=wrap;html=1;align=left;fontSize=12;fontFamily=Helvetica;fillColor=none;strokeColor=#33FF33;" vertex="1" parent="1">
          <mxGeometry x="80" y="1130" width="210" height="351" as="geometry" />
        </mxCell>
        <mxCell id="Gu23wZPOQihIqfuBA1uE-7" value="&lt;p class=&quot;p1&quot; style=&quot;font-family: &amp;#34;helvetica neue&amp;#34; ; background-color: rgb(255 , 255 , 255) ; margin: 0px&quot;&gt;&lt;b&gt;Key coverage items:&lt;/b&gt;&lt;/p&gt;&lt;p class=&quot;p1&quot; style=&quot;font-family: &amp;#34;helvetica neue&amp;#34; ; background-color: rgb(255 , 255 , 255) ; margin: 0px&quot;&gt;&lt;/p&gt;&lt;ul style=&quot;background-color: rgb(255 , 255 , 255)&quot;&gt;&lt;li&gt;&lt;font face=&quot;helvetica neue&quot;&gt;Test bed setup automations.&lt;/font&gt;&lt;/li&gt;&lt;li&gt;&lt;font face=&quot;helvetica neue&quot;&gt;Data loading for all types .&lt;/font&gt;&lt;/li&gt;&lt;li&gt;&lt;font face=&quot;helvetica neue&quot;&gt;Measurement/Instrumentation&lt;/font&gt;&lt;/li&gt;&lt;li&gt;&lt;font face=&quot;helvetica neue&quot;&gt;Analysis/Parsing available&lt;/font&gt;&lt;/li&gt;&lt;/ul&gt;&lt;p class=&quot;p1&quot; style=&quot;background-color: rgb(255 , 255 , 255) ; margin: 0px ; font-family: &amp;#34;helvetica neue&amp;#34;&quot;&gt;&lt;b style=&quot;font-style: inherit&quot;&gt;Key exit items :&lt;/b&gt;&lt;/p&gt;&lt;p class=&quot;p1&quot; style=&quot;font-family: &amp;#34;helvetica neue&amp;#34; ; background-color: rgb(255 , 255 , 255) ; margin: 0px&quot;&gt;&lt;/p&gt;&lt;ul style=&quot;background-color: rgb(255 , 255 , 255)&quot;&gt;&lt;li&gt;&lt;font face=&quot;helvetica neue&quot;&gt;Automation proposal discussed.&lt;/font&gt;&lt;/li&gt;&lt;li&gt;&lt;font face=&quot;helvetica neue&quot;&gt;Scripts or Jenkins job checked in Github.&lt;/font&gt;&lt;/li&gt;&lt;/ul&gt;" style="text;spacingTop=-5;fillColor=#33FF33;whiteSpace=wrap;html=1;align=left;fontSize=12;fontFamily=Helvetica;fillColor=none;strokeColor=#33FF33;" vertex="1" parent="1">
          <mxGeometry x="300" y="1130" width="210" height="352" as="geometry" />
        </mxCell>
        <mxCell id="Gu23wZPOQihIqfuBA1uE-8" value="&lt;p class=&quot;p1&quot; style=&quot;background-color: rgb(255 , 255 , 255) ; margin: 0px&quot;&gt;&lt;b&gt;Key coverage items:&lt;/b&gt;&lt;/p&gt;&lt;ul style=&quot;font-family: &amp;#34;helvetica&amp;#34; ; background-color: rgb(255 , 255 , 255)&quot;&gt;&lt;li&gt;&lt;font face=&quot;helvetica neue&quot;&gt;Review the overhead of Komprise stack in design phase.&lt;/font&gt;&lt;/li&gt;&lt;li&gt;&lt;font face=&quot;helvetica neue&quot;&gt;Memory / CPU profiling as needed.&lt;/font&gt;&lt;/li&gt;&lt;li&gt;&lt;font face=&quot;helvetica neue&quot;&gt;JVM stats , GC , HEAP stats capture&lt;/font&gt;&lt;/li&gt;&lt;li&gt;&lt;font face=&quot;helvetica neue&quot;&gt;Conditions of Memory Leak, RACE condition identified in design.&lt;/font&gt;&lt;/li&gt;&lt;li&gt;&lt;font face=&quot;helvetica neue&quot;&gt;Tuning parameters NFS/SMB/S3 etc for relevant usecases.&lt;/font&gt;&lt;/li&gt;&lt;/ul&gt;&lt;p class=&quot;p1&quot; style=&quot;background-color: rgb(255 , 255 , 255) ; margin: 0px&quot;&gt;&lt;b&gt;Key exit items :&lt;/b&gt;&lt;/p&gt;&lt;p class=&quot;p1&quot; style=&quot;background-color: rgb(255 , 255 , 255) ; margin: 0px&quot;&gt;&lt;/p&gt;&lt;ul style=&quot;background-color: rgb(255 , 255 , 255)&quot;&gt;&lt;li&gt;&lt;font face=&quot;helvetica neue&quot;&gt;Having Tech note handy for Good to Know Profiling stats.&lt;/font&gt;&lt;/li&gt;&lt;li&gt;&lt;font face=&quot;helvetica neue&quot;&gt;Jira&#39;s filed for any design concerns.&lt;/font&gt;&lt;/li&gt;&lt;li&gt;&lt;font face=&quot;helvetica neue&quot;&gt;Key profiling and diagnosis information available in confluence as needed.&lt;/font&gt;&lt;/li&gt;&lt;/ul&gt;&lt;div style=&quot;margin: 0px ; padding: 0px ; border: 0px ; font: inherit ; vertical-align: baseline ; color: inherit&quot;&gt;&lt;br style=&quot;color: rgb(0 , 0 , 0) ; font-family: &amp;#34;helvetica neue&amp;#34; ; font-size: 12px ; font-style: normal ; font-weight: 400 ; letter-spacing: normal ; text-align: left ; text-indent: 0px ; text-transform: none ; word-spacing: 0px ; background-color: rgb(255 , 255 , 255)&quot;&gt;&lt;/div&gt;" style="text;spacingTop=-5;fillColor=#33FF33;whiteSpace=wrap;html=1;align=left;fontSize=12;fontFamily=Helvetica;fillColor=none;strokeColor=#00FF00;" vertex="1" parent="1">
          <mxGeometry x="520" y="1130" width="210" height="351" as="geometry" />
        </mxCell>
        <mxCell id="Gu23wZPOQihIqfuBA1uE-9" value="&lt;p class=&quot;p1&quot; style=&quot;font-stretch: normal ; line-height: normal ; font-family: &amp;#34;helvetica neue&amp;#34; ; background-color: rgb(255 , 255 , 255) ; margin: 0px&quot;&gt;&lt;b&gt;Key coverage items:&lt;/b&gt;&lt;/p&gt;&lt;p class=&quot;p1&quot; style=&quot;font-stretch: normal ; line-height: normal ; font-family: &amp;#34;helvetica neue&amp;#34; ; background-color: rgb(255 , 255 , 255) ; margin: 0px&quot;&gt;&lt;br&gt;&lt;/p&gt;&lt;ul style=&quot;background-color: rgb(255 , 255 , 255)&quot;&gt;&lt;li&gt;Finding architecutral limits on design at solution level.&lt;/li&gt;&lt;li&gt;Find max customer support matrix.&lt;/li&gt;&lt;li&gt;Recommend best practises for ideal performance goals.&lt;/li&gt;&lt;li&gt;For given customer Infra suggest ideal Komprise sizing .&lt;/li&gt;&lt;/ul&gt;&lt;p style=&quot;font-family: &amp;#34;calibri&amp;#34; , &amp;#34;arial&amp;#34; , &amp;#34;helvetica&amp;#34; , sans-serif ; font-size: 16px ; background-color: rgb(255 , 255 , 255)&quot;&gt;&lt;/p&gt;&lt;p class=&quot;p2&quot; style=&quot;font-stretch: normal ; line-height: normal ; font-family: &amp;#34;helvetica neue&amp;#34; ; background-color: rgb(255 , 255 , 255) ; margin: 0px ; min-height: 14px&quot;&gt;&lt;br&gt;&lt;/p&gt;&lt;p class=&quot;p1&quot; style=&quot;font-stretch: normal ; line-height: normal ; font-family: &amp;#34;helvetica neue&amp;#34; ; background-color: rgb(255 , 255 , 255) ; margin: 0px&quot;&gt;&lt;b&gt;Key exit items :&lt;/b&gt;&lt;/p&gt;&lt;p class=&quot;p1&quot; style=&quot;font-stretch: normal ; line-height: normal ; font-family: &amp;#34;helvetica neue&amp;#34; ; background-color: rgb(255 , 255 , 255) ; margin: 0px&quot;&gt;&lt;/p&gt;&lt;ul style=&quot;background-color: rgb(255 , 255 , 255)&quot;&gt;&lt;li&gt;&lt;font face=&quot;helvetica neue&quot;&gt;White paper on solution limits and best practises.&lt;/font&gt;&lt;/li&gt;&lt;li&gt;&lt;font face=&quot;helvetica neue&quot;&gt;Publish limits on component like Director, Observer, Proxy based on internal validations.&lt;/font&gt;&lt;/li&gt;&lt;/ul&gt;" style="text;spacingTop=-5;fillColor=#ffffff;whiteSpace=wrap;html=1;align=left;fontSize=12;fontFamily=Helvetica;fillColor=none;strokeColor=#33FF33;" vertex="1" parent="1">
          <mxGeometry x="740" y="1130" width="210" height="349" as="geometry" />
        </mxCell>
      </root>
    </mxGraphModel>
  </diagram>
</mxfile>
